<svg width="32" height="32" viewBox="0 0 32 32" fill="none" xmlns="http://www.w3.org/2000/svg">
<circle cx="16" cy="16" r="16" fill="#5865F2"></circle>
<path d="M22.9308 9.62891C21.6561 9.04401 20.2892 8.61308 18.8599 8.36627C18.8339 8.36151 18.8079 8.37341 18.7945 8.39722C18.6187 8.7099 18.4239 9.11781 18.2876 9.43843C16.7503 9.20829 15.221 9.20829 13.7153 9.43843C13.5789 9.11069 13.3771 8.7099 13.2005 8.39722C13.1871 8.3742 13.1611 8.3623 13.135 8.36627C11.7066 8.61229 10.3396 9.04322 9.06411 9.62891C9.05307 9.63367 9.04361 9.64162 9.03732 9.65193C6.44449 13.5256 5.73421 17.304 6.08265 21.0356C6.08423 21.0538 6.09447 21.0713 6.10867 21.0824C7.81934 22.3387 9.47642 23.1013 11.1027 23.6069C11.1288 23.6148 11.1563 23.6053 11.1729 23.5838C11.5576 23.0585 11.9005 22.5045 12.1946 21.922C12.2119 21.8879 12.1954 21.8474 12.1599 21.8339C11.6159 21.6276 11.098 21.376 10.5998 21.0903C10.5604 21.0673 10.5572 21.0109 10.5935 20.984C10.6983 20.9054 10.8032 20.8236 10.9033 20.7411C10.9214 20.726 10.9466 20.7229 10.9679 20.7324C14.2411 22.2268 17.7846 22.2268 21.0191 20.7324C21.0404 20.7221 21.0657 20.7252 21.0846 20.7403C21.1847 20.8229 21.2895 20.9054 21.3952 20.984C21.4314 21.0109 21.4291 21.0673 21.3897 21.0903C20.8914 21.3816 20.3735 21.6276 19.8288 21.8331C19.7933 21.8466 19.7775 21.8879 19.7949 21.922C20.0952 22.5037 20.4381 23.0577 20.8157 23.5831C20.8315 23.6053 20.8599 23.6148 20.8859 23.6069C22.5201 23.1013 24.1772 22.3387 25.8879 21.0824C25.9028 21.0713 25.9123 21.0546 25.9139 21.0363C26.3309 16.7222 25.2154 12.9748 22.9568 9.65271C22.9513 9.64162 22.9419 9.63367 22.9308 9.62891ZM12.6834 18.7634C11.6979 18.7634 10.8859 17.8587 10.8859 16.7476C10.8859 15.6366 11.6822 14.7319 12.6834 14.7319C13.6924 14.7319 14.4965 15.6445 14.4807 16.7476C14.4807 17.8587 13.6845 18.7634 12.6834 18.7634ZM19.329 18.7634C18.3435 18.7634 17.5316 17.8587 17.5316 16.7476C17.5316 15.6366 18.3278 14.7319 19.329 14.7319C20.338 14.7319 21.1421 15.6445 21.1264 16.7476C21.1264 17.8587 20.338 18.7634 19.329 18.7634Z" fill="white"></path>
</svg>