<svg width="24" height="24" viewBox="0 0 24 24" fill="none" xmlns="http://www.w3.org/2000/svg">
<path class="svg-stroke" style="stroke: var(--svg-stroke, #7D8AA8);" d="M2 10.4C2 8.15979 2 7.03968 2.43597 6.18404C2.81947 5.43139 3.43139 4.81947 4.18404 4.43597C5.03968 4 6.15979 4 8.4 4H15.6C17.8402 4 18.9603 4 19.816 4.43597C20.5686 4.81947 21.1805 5.43139 21.564 6.18404C22 7.03968 22 8.15979 22 10.4V13.6C22 15.8402 22 16.9603 21.564 17.816C21.1805 18.5686 20.5686 19.1805 19.816 19.564C18.9603 20 17.8402 20 15.6 20H8.4C6.15979 20 5.03968 20 4.18404 19.564C3.43139 19.1805 2.81947 18.5686 2.43597 17.816C2 16.9603 2 15.8402 2 13.6V10.4Z" stroke-width="1.5" stroke-miterlimit="10" stroke-linecap="round" stroke-linejoin="round"></path>
<circle class="svg-stroke" style="stroke: var(--svg-stroke, #A9B2C6);" cx="7.5" cy="10.5" r="1.75" stroke-width="1.5" stroke-miterlimit="10" stroke-linecap="round" stroke-linejoin="round"></circle>
<path class="svg-stroke" style="stroke: var(--svg-stroke, #A9B2C6);" d="M5 1H19" stroke-width="1.5" stroke-miterlimit="10" stroke-linecap="round" stroke-linejoin="round"></path>
<path class="svg-stroke" style="stroke: var(--svg-stroke, #A9B2C6);" d="M5 23H19" stroke-width="1.5" stroke-miterlimit="10" stroke-linecap="round" stroke-linejoin="round"></path>
<path class="svg-stroke" style="stroke: var(--svg-stroke, #A9B2C6);" d="M12 9H15" stroke-width="1.5" stroke-miterlimit="10" stroke-linecap="round" stroke-linejoin="round"></path>
<path class="svg-stroke" style="stroke: var(--svg-stroke, #A9B2C6);" d="M12 12H17" stroke-width="1.5" stroke-miterlimit="10" stroke-linecap="round" stroke-linejoin="round"></path>
</svg>