<svg width="24" height="24" viewBox="0 0 24 24" fill="none" xmlns="http://www.w3.org/2000/svg">
<path class="svg-stroke" style="stroke: var(--svg-stroke, #272F3F);" d="M10.0698 2.81985L3.13978 8.36985C2.35978 8.98985 1.85978 10.2999 2.02978 11.2799L3.35978 19.2399C3.59978 20.6599 4.95978 21.8099 6.39978 21.8099H17.5998C19.0298 21.8099 20.3998 20.6499 20.6398 19.2399L21.9698 11.2799C22.1298 10.2999 21.6298 8.98985 20.8598 8.36985L13.9298 2.82985C12.8598 1.96985 11.1298 1.96985 10.0698 2.81985Z" stroke-width="1.5" stroke-linecap="round" stroke-linejoin="round"></path>
<path class="svg-fill" style="fill: var(--svg-fill, #272F3F);" fill-rule="evenodd" clip-rule="evenodd" d="M3.13978 8.36985L10.0698 2.81985C11.1298 1.96985 12.8598 1.96985 13.9298 2.82985L20.8598 8.36985C21.6298 8.98985 22.1298 10.2999 21.9698 11.2799L20.6398 19.2399C20.3998 20.6499 19.0298 21.8099 17.5998 21.8099H6.39978C4.95978 21.8099 3.59978 20.6599 3.35978 19.2399L2.02978 11.2799C1.85978 10.2999 2.35978 8.98985 3.13978 8.36985ZM13.1503 16.5219C13.5338 17.7859 12.9458 18.6285 12 18.6285C11.0542 18.6285 10.4662 17.7859 10.8497 16.5219L11.8211 13.2566L9.54596 15.7319C8.67682 16.7062 7.65431 16.6272 7.19418 15.7846C6.70848 14.9156 7.14305 13.9939 8.39563 13.7043L11.6166 12.9143L8.39563 12.1243C7.14305 11.8346 6.70848 10.913 7.19418 10.044C7.65431 9.20132 8.67682 9.12232 9.54596 10.0966L11.8211 12.5983L10.8497 9.30666C10.4662 8.04267 11.0542 7.20001 12 7.20001C12.9458 7.20001 13.5338 8.04267 13.1503 9.30666L12.1789 12.5983L14.454 10.0966C15.3232 9.12232 16.3457 9.20132 16.8058 10.044C17.2915 10.913 16.8569 11.8346 15.6044 12.1243L12.3579 12.9143L15.6044 13.7043C16.8569 13.9939 17.2915 14.9156 16.8058 15.7846C16.3457 16.6272 15.3232 16.7062 14.454 15.7319L12.1789 13.2566L13.1503 16.5219Z"></path>
</svg>