<svg width="32" height="32" viewBox="0 0 32 32" fill="none" xmlns="http://www.w3.org/2000/svg" style="transform: scale(calc(32/24))" ;="">
<circle cx="16" cy="16" r="12" fill="#1D9BF0"></circle>
<circle cx="16" cy="16" r="12.5" stroke="white" stroke-opacity="0.2"></circle>
<path d="M23.383 11.4205C22.8397 11.6615 22.2559 11.8243 21.643 11.8976C22.2685 11.5226 22.7489 10.9289 22.975 10.2215C22.3897 10.5687 21.7414 10.8208 21.0513 10.9567C20.4987 10.3679 19.7114 10 18.8401 10C17.167 10 15.8106 11.3564 15.8106 13.0294C15.8106 13.2668 15.8374 13.498 15.889 13.7197C13.3713 13.5934 11.1391 12.3873 9.64489 10.5545C9.38412 11.0019 9.23475 11.5223 9.23475 12.0775C9.23475 13.1285 9.76958 14.0558 10.5824 14.5991C10.0858 14.5833 9.61873 14.447 9.21027 14.2201C9.21006 14.2328 9.21001 14.2454 9.21001 14.2582C9.21001 15.726 10.2543 16.9504 11.6401 17.2287C11.3859 17.2979 11.1183 17.335 10.842 17.335C10.6468 17.335 10.457 17.316 10.272 17.2806C10.6575 18.4842 11.7763 19.3601 13.102 19.3845C12.0652 20.197 10.7589 20.6813 9.3396 20.6813C9.09507 20.6813 8.85392 20.667 8.61694 20.639C9.95762 21.4986 11.55 22.0001 13.2608 22.0001C18.833 22.0001 21.8801 17.3839 21.8801 13.3806C21.8801 13.2493 21.8772 13.1187 21.8714 12.9887C22.4632 12.5616 22.9768 12.028 23.383 11.4205Z" fill="white"></path>
</svg>